<svg xmlns="http://www.w3.org/2000/svg" xmlns:xlink="http://www.w3.org/1999/xlink" version="1.1" width="256" height="256" viewBox="0 0 256 256" xml:space="preserve">
<g transform="translate(1.4065934065934016 1.4065934065934016) scale(2.81 2.81)" >
	<path d="M 85.146 21.195 c 2.677 0 4.854 -2.178 4.854 -4.854 v -4.817 c 0 -2.676 -2.178 -4.854 -4.854 -4.854 H 4.854 C 2.178 6.669 0 8.847 0 11.523 v 4.817 c 0 2.676 2.178 4.854 4.854 4.854 H 5.78 v 4.722 C 2.468 26.73 0 29.716 0 33.275 v 9.062 v 17.326 V 70.21 c 0 4.182 3.402 7.584 7.584 7.584 h 74.832 c 4.182 0 7.584 -3.402 7.584 -7.584 V 59.663 V 42.337 v -9.062 c 0 -3.559 -2.468 -6.545 -5.78 -7.358 v -4.722 H 85.146 z M 4.854 19.195 C 3.28 19.195 2 17.915 2 16.341 v -4.817 C 2 9.95 3.28 8.669 4.854 8.669 h 80.292 C 86.72 8.669 88 9.95 88 11.523 v 4.817 c 0 1.574 -1.28 2.854 -2.854 2.854 H 84.22 H 5.78 H 4.854 z M 2 44.337 h 34.144 l 0.3 -0.365 c 2.114 -2.571 5.233 -4.045 8.556 -4.045 c 3.323 0 6.441 1.474 8.556 4.045 l 0.3 0.365 H 88 v 13.326 H 53.855 l -0.3 0.365 c -2.113 2.57 -5.231 4.044 -8.556 4.044 c -3.323 0 -6.442 -1.474 -8.556 -4.044 l -0.3 -0.365 H 2 V 44.337 z M 88 70.21 c 0 3.079 -2.505 5.584 -5.584 5.584 H 7.584 C 4.505 75.794 2 73.289 2 70.21 V 59.663 h 33.211 c 2.484 2.809 6.025 4.409 9.789 4.409 c 3.765 0 7.305 -1.601 9.789 -4.409 H 88 V 70.21 z M 88 33.275 v 9.062 H 54.789 c -2.484 -2.809 -6.025 -4.41 -9.789 -4.41 c -3.763 0 -7.304 1.601 -9.789 4.41 H 2 v -9.062 c 0 -3.079 2.505 -5.584 5.584 -5.584 h 74.832 C 85.495 27.691 88 30.196 88 33.275 z M 82.22 25.691 H 7.78 v -4.497 H 82.22 V 25.691 z" style="stroke: none; stroke-width: 1; stroke-dasharray: none; stroke-linecap: butt; stroke-linejoin: miter; stroke-miterlimit: 10; fill: #F2E2CE; fill-rule: nonzero; opacity: 1;" transform=" matrix(1 0 0 1 0 0) " stroke-linecap="round" />
</g>
</svg>