<svg width="50" height="50" viewBox="0 0 52 54">
<path fill-rule="evenodd" clip-rule="evenodd" d="M19.097 0H51.072V41.2356H49.49V1.58194H19.7546L11.5087 9.87093V16.9274H9.92676V9.21808L19.097 0Z"/>
<path fill-rule="evenodd" clip-rule="evenodd" d="M9.92676 41.4751H11.5087V52.418H49.49V42.8175H51.072V54H9.92676V41.4751Z"/>
<path fill-rule="evenodd" clip-rule="evenodd" d="M18.6349 8.80575V0.790985H20.2168V10.3877H10.7178V8.80575H18.6349Z"/>
<path fill-rule="evenodd" clip-rule="evenodd" d="M10.7177 22.2596C8.53351 22.2596 6.76285 24.0302 6.76285 26.2144C6.76285 28.3986 8.53351 30.1693 10.7177 30.1693C12.9019 30.1693 14.6726 28.3986 14.6726 26.2144C14.6726 24.0302 12.9019 22.2596 10.7177 22.2596ZM5.18091 26.2144C5.18091 23.1565 7.65982 20.6776 10.7177 20.6776C13.7756 20.6776 16.2545 23.1565 16.2545 26.2144C16.2545 29.2723 13.7756 31.7512 10.7177 31.7512C7.65982 31.7512 5.18091 29.2723 5.18091 26.2144Z"/>
<path fill-rule="evenodd" clip-rule="evenodd" d="M40.7877 42.0266C39.4772 42.0266 38.4148 43.089 38.4148 44.3995C38.4148 45.71 39.4772 46.7724 40.7877 46.7724C42.0983 46.7724 43.1607 45.71 43.1607 44.3995C43.1607 43.089 42.0983 42.0266 40.7877 42.0266ZM36.8329 44.3995C36.8329 42.2153 38.6035 40.4446 40.7877 40.4446C42.972 40.4446 44.7426 42.2153 44.7426 44.3995C44.7426 46.5837 42.972 48.3544 40.7877 48.3544C38.6035 48.3544 36.8329 46.5837 36.8329 44.3995Z"/>
<path fill-rule="evenodd" clip-rule="evenodd" d="M10.7178 15.924L13.4678 17.7512L16.7674 17.8889L17.9161 20.985L20.5077 23.0336L19.6146 26.2144L20.5077 29.3952L17.9162 31.4438L16.7675 34.5399L13.4678 34.6777L10.7178 36.5049L7.96783 34.6777L4.66826 34.5399L3.51947 31.4438L0.927861 29.3952L1.82101 26.2144L0.927856 23.0337L3.51946 20.9851L4.66813 17.889L7.96773 17.7512L10.7178 15.924ZM10.7178 17.8233L8.47519 19.3133L5.78533 19.4257L4.84837 21.9512L2.7359 23.621L3.46414 26.2144L2.7359 28.8079L4.84836 30.4777L5.78542 33.0032L8.4753 33.1156L10.7178 34.6056L12.9603 33.1156L15.6503 33.0032L16.5873 30.4778L18.6997 28.8079L17.9715 26.2144L18.6997 23.6209L16.5872 21.9511L15.6502 19.4256L12.9604 19.3134L10.7178 17.8233Z"/>
<path fill-rule="evenodd" clip-rule="evenodd" d="M6.77136 33.9782H8.35331V42.1253L10.7252 40.52L13.0969 42.1253V34.1241H14.6789V45.1063L10.7252 42.4302L6.77136 45.1063V33.9782Z"/>
<path fill-rule="evenodd" clip-rule="evenodd" d="M24.9626 5.64185H30.4995V7.22379H26.5446V8.80574H43.1606V7.22379H32.0402V5.64185H44.7425V10.3877H24.9626V5.64185Z"/>
<path fill-rule="evenodd" clip-rule="evenodd" d="M44.7369 16.7155H22.5897V15.1335H44.7369V16.7155Z"/>
<path fill-rule="evenodd" clip-rule="evenodd" d="M44.7369 23.0432H22.5897V21.4613H44.7369V23.0432Z"/>
<path fill-rule="evenodd" clip-rule="evenodd" d="M44.7369 29.371H22.5897V27.7891H44.7369V29.371Z"/>
<path fill-rule="evenodd" clip-rule="evenodd" d="M44.7369 35.6988H22.5897V34.1169H44.7369V35.6988Z"/>
<path fill-rule="evenodd" clip-rule="evenodd" d="M25.504 43.1959C25.8602 43.092 26.2504 43.3695 26.2594 43.7615L25.504 43.1959ZM25.0612 41.6772C26.4355 41.2765 27.8086 42.3152 27.8409 43.7253C27.8558 44.3731 27.7223 44.9555 27.6195 45.3757C27.6085 45.4205 27.5982 45.4623 27.5885 45.5017C27.5879 45.5039 27.5874 45.506 27.5869 45.5082C27.9809 45.4029 28.5697 45.1992 29.4363 44.858L30.0159 46.3299C28.888 46.7741 28.085 47.0463 27.5331 47.1395C27.2676 47.1844 26.9444 47.2103 26.642 47.1063C26.4746 47.0488 26.3084 46.9496 26.1733 46.7944C26.0398 46.641 25.9696 46.4707 25.9347 46.3188C25.8721 46.0457 25.9123 45.7733 25.9447 45.5977C25.9737 45.4412 26.0175 45.264 26.0578 45.1014C26.0664 45.0667 26.0748 45.0327 26.0829 44.9997C26.1824 44.593 26.2691 44.1851 26.2594 43.7615M25.0612 41.6772L25.0612 41.6772L25.0612 41.6772ZM23.6355 44.6385C23.0243 45.3747 22.6384 46.131 22.5587 46.5609L21.0033 46.2726C21.1538 45.4606 21.7305 44.4565 22.4184 43.628C23.1066 42.7992 24.0492 41.9723 25.0612 41.6772M23.6355 44.6385C24.2465 43.9027 24.9396 43.3605 25.504 43.1959L23.6355 44.6385Z"/>
</svg>