<svg width="50" height="50" viewBox="0 0 54 48">
<path d="M53.8341 13.9448C44.4866 1.95943 44.8853 2.2597 44.3862 2.21076L29.7541 0.239871C26.0657 -0.25699 23.5603 0.388793 22.2809 0.504492C21.8516 0.562288 21.5505 0.957267 21.6081 1.38663C21.6659 1.81599 22.0614 2.11774 22.4903 2.05941C23.7878 1.94044 26.1147 1.33305 29.5446 1.79479L39.5926 3.14816C38.8406 3.30141 27.7523 5.56096 26.9998 5.71431L14.4073 3.14816L18.76 2.56186C19.1893 2.50407 19.4904 2.10909 19.4328 1.67973C19.375 1.25026 18.9791 0.949041 18.5506 1.00694L9.61428 2.21055C9.61302 2.21065 9.61175 2.21086 9.61049 2.21107L9.59867 2.21266C9.58665 2.21434 9.57494 2.21698 9.56302 2.2192C9.55533 2.22067 9.54742 2.22173 9.53982 2.22341C9.53339 2.22479 9.52695 2.22616 9.52063 2.22763C9.51166 2.22985 9.5028 2.23248 9.49394 2.23491C9.48023 2.23871 9.46652 2.2424 9.45302 2.24693C9.44743 2.24883 9.44216 2.25115 9.43657 2.25316C9.43414 2.254 9.43172 2.25495 9.4294 2.2559C9.42159 2.25885 9.41347 2.26159 9.40577 2.26465C9.39164 2.27045 9.37793 2.27689 9.36422 2.28353C9.35821 2.28638 9.3523 2.28902 9.34639 2.29197C9.33975 2.29534 9.33331 2.29861 9.32688 2.30209C9.32066 2.30547 9.31475 2.30927 9.30853 2.31296C8.96787 2.51145 9.13419 2.52548 0.165902 13.9447C-0.0205661 14.1839 -0.0526284 14.5091 0.0838476 14.7801C0.39962 15.4065 -0.440224 14.1699 16.8723 37.1501C17.1332 37.496 17.6251 37.5648 17.9711 37.3039C18.3169 37.0429 18.3857 36.551 18.1248 36.2051L2.91852 16.0505L15.2058 19.9208C15.5005 20.698 24.5006 44.4365 24.6676 44.8769L20.3378 39.1383C20.0768 38.7923 19.585 38.7236 19.239 38.9845C18.8931 39.2454 18.8244 39.7373 19.0852 40.0833C23.619 46.0911 24.0861 46.7137 24.1184 46.75C24.6912 47.3956 25.4834 47.8039 26.241 47.9317C26.3532 47.9508 27.6676 47.9504 27.7775 47.929C28.7328 47.7434 29.5398 47.2038 29.9207 46.7021L45.2341 26.4054C45.4949 26.0595 45.4262 25.5676 45.0803 25.3066C44.7342 25.0459 44.2426 25.1147 43.9816 25.4604L29.332 44.8773C29.8 43.6431 38.4501 20.8279 38.794 19.9209L51.0814 16.0506L46.1868 22.5378C45.926 22.8837 45.9946 23.3756 46.3406 23.6365C46.6866 23.8975 47.1784 23.8287 47.4393 23.4828C54.0102 14.7654 53.6562 15.2938 53.9155 14.7813C54.0526 14.5102 54.0209 14.1844 53.8341 13.9448ZM26.9999 7.70503L36.4645 18.5023H17.5354L26.9999 7.70503ZM2.01761 14.1218L9.45998 4.57789L14.5057 18.0556L2.01761 14.1218ZM10.9347 4.04169C12.4881 4.3582 23.6262 6.62809 25.5194 7.01389L16.0792 17.7834L10.9347 4.04169ZM27.0866 46.3745H26.9134L16.9409 20.0712H37.0591L27.0866 46.3745ZM37.9206 17.7833L28.4804 7.01389C29.7362 6.75792 41.134 4.4353 43.065 4.04169L37.9206 17.7833ZM39.4941 18.0554L44.5398 4.57768L51.9823 14.1217L39.4941 18.0554Z"/>
</svg>