<svg width="30" height="30" viewBox="0 0 30 24">
                        <path
                            d="M28.3334 1.34668C27 2.00002 25.6934 2.26535 24.3334 2.66668C22.8387 0.980018 20.6227 0.886684 18.4934 1.68402C16.364 2.48135 14.9694 4.43068 15 6.66668V8.00002C10.6734 8.11068 6.82002 6.14002 4.33335 2.66668C4.33335 2.66668 -1.24265 12.5774 9.66669 17.3334C7.17069 18.996 4.68135 20.1174 1.66669 20C6.07735 22.404 10.884 23.2307 15.0454 22.0227C19.8187 20.636 23.7414 17.0587 25.2467 11.7C25.6957 10.0702 25.9187 8.3865 25.9094 6.69602C25.9067 6.36402 27.9227 3.00002 28.3334 1.34535V1.34668Z"
                            stroke-width="1" stroke-linecap="round" stroke-linejoin="round" />
                    </svg>